<?xml version="1.0" encoding="utf-8"?>
<!-- Svg Vector Icons : http://www.sfont.cn -->
<!DOCTYPE svg PUBLIC "-//W3C//DTD SVG 1.1//EN" "http://www.w3.org/Graphics/SVG/1.1/DTD/svg11.dtd">
<svg version="1.1" xmlns="http://www.w3.org/2000/svg" xmlns:xlink="http://www.w3.org/1999/xlink" x="0px" y="0px" viewBox="0 0 1000 1000" enable-background="new 0 0 1000 1000" xml:space="preserve">
<metadata> Svg Vector Icons : http://www.sfont.cn </metadata>
<g><g transform="translate(0.000000,512.000000) scale(0.100000,-0.100000)"><path d="M4525.4,5006.1c-952.3-95.8-1872-473.3-2605.9-1065.4c-247.2-199.3-651.5-615.1-829.7-852.7C568.6,2392.5,252.4,1618.4,124.1,725.5C87.7,464.9,93.4-274.7,135.6-548.7c134.1-871.8,438.8-1605.7,956.1-2297.4c176.3-237.6,697.5-758.8,935.1-935.1c839.2-626.6,1770.5-958,2805.2-994.4c1120.9-42.2,2203.5,300.8,3127.1,990.6c241.4,180.1,762.6,701.3,942.7,942.7c820.1,1099.8,1155.4,2456.4,929.3,3778.6c-138,818.2-507.8,1634.4-1032.8,2280.2c-187.8,231.9-609.3,640-837.3,810.5c-674.5,505.9-1431.3,822-2276.3,952.3C5445.1,5015.6,4770.6,5032.9,4525.4,5006.1z M5437.4,4624.8c555.7-55.6,1046.2-197.4,1559.7-450.3c906.3-446.4,1601.9-1142,2050.2-2050.2c333.4-672.5,486.7-1377.7,463.7-2136.5c-21.1-687.9-161-1253.1-461.8-1868.2C8600.9-2792.5,7888.1-3507.2,6978-3949.8c-440.7-214.6-822-335.3-1312.5-413.9c-337.2-55.6-971.5-59.4-1293.4-9.6c-827.8,128.4-1577,452.2-2205.4,954.2C1331.2-2752.3,731.5-1742.5,541.8-682.9c-383.2,2142.2,814.3,4261.4,2841.6,5031.7C4029.1,4594.1,4755.3,4691.8,5437.4,4624.8z"/><path d="M4287.8,2258.4c-101.6-32.6-185.9-107.3-233.8-210.8c-28.7-61.3-36.4-124.6-36.4-310.4v-235.7l-588.2-3.8l-590.2-5.7l-5.7-195.4l-5.8-197.4h203.1H3232V-313.1c0-1333.6,1.9-1417.9,36.4-1492.7c44.1-97.7,155.2-189.7,262.5-216.5c115-28.8,2812.8-28.8,2927.8,0c107.3,26.8,218.4,118.8,262.5,216.5c34.5,74.7,36.4,159.1,36.4,1490.7v1412.2l197.4,5.8l195.4,5.7v191.6v191.6l-588.3,5.7l-590.2,3.8v229.9c0,258.7-21.1,333.4-120.7,436.9c-105.4,109.2-176.3,118.8-864.2,116.9C4523.4,2285.2,4351,2277.5,4287.8,2258.4z M5588.8,1693.1v-191.6h-594h-594v191.6v191.6h594h594V1693.1z M6374.4-270.9v-1370h-201.2H5972v1178.4V715.9h-191.6h-191.6V-462.5v-1178.4h-201.2h-201.2v1178.4V715.9h-191.6h-191.6V-462.5v-1178.4H4602h-201.2v1178.4V715.9h-191.6h-191.6V-462.5v-1178.4h-201.2h-201.2v1370v1370h1379.6h1379.6V-270.9z"/></g></g>
</svg>