<?xml version="1.0" encoding="utf-8"?>
<!-- Svg Vector Icons : http://www.sfont.cn -->
<!DOCTYPE svg PUBLIC "-//W3C//DTD SVG 1.1//EN" "http://www.w3.org/Graphics/SVG/1.1/DTD/svg11.dtd">
<svg version="1.1" xmlns="http://www.w3.org/2000/svg" xmlns:xlink="http://www.w3.org/1999/xlink" x="0px" y="0px" viewBox="0 0 1000 1000" enable-background="new 0 0 1000 1000" xml:space="preserve">
<metadata> Svg Vector Icons : http://www.sfont.cn </metadata>
<g><g transform="translate(0.000000,512.000000) scale(0.100000,-0.100000)"><path d="M4631.2,5015.7c-634.2-57.5-1212.8-212.7-1755.1-475.2c-546.1-264.4-894.8-513.5-1339.3-959.9c-446.4-446.4-676.4-766.4-948.4-1322.1c-231.8-469.4-367.9-914-454.1-1465.8c-46-308.5-46-1032.7,1.9-1341.2c90.1-586.3,239.5-1057.6,488.6-1548.1c254.8-496.3,494.3-822,912-1239.7c438.8-440.7,764.5-674.4,1302.9-938.9c343-168.6,567.1-252.9,915.9-344.9c1452.4-383.2,2981.4-76.6,4209.5,839.2c233.8,176.3,756.8,699.3,933.1,933.1C9909.8-1493,10170.4,202.7,9610.9,1779.6c-168.6,475.2-484.8,1032.7-812.4,1437c-187.8,231.8-609.3,640-837.3,810.5C7286.8,4532.9,6530,4849,5685,4979.3C5491.5,5008.1,4817,5033,4631.2,5015.7z M5437.8,4624.9c555.7-55.6,1046.2-197.3,1559.7-450.3c906.3-446.4,1601.8-1142,2050.1-2050.1C9381,1451.9,9534.3,746.8,9511.3-11.9c-21.1-689.8-161-1255-463.7-1868.1c-582.5-1182.2-1640.1-2044.4-2921.9-2377.8c-645.7-168.6-1393-183.9-2073.2-44.1c-503.9,103.5-1126.6,364-1557.7,653.4C1471.6-2964.5,781.9-1924.1,551.9-720.9C140,1423.2,1341.3,3574.9,3383.8,4349C4029.5,4594.2,4755.7,4691.9,5437.8,4624.9z"/><path d="M4512.4,3044.1c-97.7-53.6-111.1-111.1-111.1-448.3v-306.6l-921.6-5.8l-921.6-5.7l-55.6-63.2c-99.6-111.1-55.6-287.4,82.4-320c23-5.7,1214.8-7.7,2646-5.7l2603.9,5.7l46,53.6c65.2,74.7,76.6,139.9,38.3,218.4c-57.5,120.7-61.3,120.7-1055.7,120.7h-891V2613v325.7l-55.6,61.3l-55.6,63.2l-649.5,3.8C4665.6,3071,4556.4,3067.1,4512.4,3044.1z M5589.2,2478.9v-191.6h-392.8h-392.8v191.6v191.6h392.8h392.8V2478.9z"/><path d="M3546.7,1482.6c-23-7.7-59.4-40.2-82.4-69l-40.2-51.7V-858.8v-2222.6l65.1-65.1l65.1-65.2h1642.1h1642l55.6,55.6l55.6,55.5v2239.8v2239.8l-40.2,44.1c-21.1,23-61.3,49.8-88.1,61.3C6761.8,1505.6,3602.3,1505.6,3546.7,1482.6z M6566.4-864.6v-1963.9h-1370h-1370v1963.9v1963.9h1370h1370V-864.6z"/><path d="M4309.3,486.2c-32.6-19.2-69-53.6-78.6-74.7c-15.3-24.9-21.1-436.9-21.1-1276.1v-1239.7l67.1-67.1c61.3-61.3,74.7-67.1,149.4-57.5c99.6,13.4,159,78.6,176.3,189.7c5.7,46,9.6,611.2,5.7,1255l-5.7,1174.5l-57.5,55.6C4468.3,518.8,4385.9,532.2,4309.3,486.2z"/><path d="M5117.8,505.4c-23-9.6-59.4-40.2-82.4-69c-40.2-51.7-40.2-53.6-40.2-1295.2v-1245.4l67.1-67.1c61.3-61.3,74.7-67.1,149.5-57.5c53.6,7.7,93.9,26.8,122.6,61.3l44.1,49.8v1260.7V401.9l-51.7,49.8C5267.3,505.4,5179.1,528.4,5117.8,505.4z"/><path d="M5903.4,505.4c-23-9.6-59.4-40.2-82.4-69c-40.2-51.7-40.2-53.6-40.2-1285.7c0-1352.7-3.8-1318.2,113-1366.1c80.5-32.6,182-9.6,231.8,51.7c38.3,47.9,38.3,69,38.3,1306.7V401.9l-51.7,49.8C6052.9,505.4,5964.7,528.4,5903.4,505.4z"/></g></g>
</svg>